<svg aria-hidden="true" role="presentation" data-slug-id="avatar" xmlns="http://www.w3.org/2000/svg" viewBox="0 0 25 25">
	<path d="M12.3103 2.01982C18.1203 2.01982 22.8503 6.74983 22.8503 12.5598C22.8503 18.3698 18.1203 23.0998 12.3103 23.0998C6.50031 23.0998 1.77031 18.3698 1.77031 12.5598C1.77031 6.74983 6.50031 2.01982 12.3103 2.01982ZM12.3103 1.31982C6.10031 1.31982 1.07031 6.34982 1.07031 12.5598C1.07031 18.7698 6.10031 23.7998 12.3103 23.7998C18.5203 23.7998 23.5503 18.7698 23.5503 12.5598C23.5603 6.35983 18.5203 1.31982 12.3103 1.31982Z"></path>
	<path d="M13.7895 12.3802C15.0295 11.8002 15.8995 10.5502 15.8995 9.10022C15.8995 7.10022 14.2795 5.47021 12.2695 5.47021C10.2695 5.47021 8.63953 7.09022 8.63953 9.10022C8.63953 10.5602 9.50953 11.8102 10.7495 12.3802C8.44953 13.0402 6.76953 15.1602 6.76953 17.6602C6.76953 17.8502 6.92953 18.0102 7.11953 18.0102C7.30953 18.0102 7.46953 17.8502 7.46953 17.6602C7.46953 15.0102 9.61953 12.8602 12.2695 12.8602C14.9195 12.8602 17.0695 15.0102 17.0695 17.6602C17.0695 17.8502 17.2295 18.0102 17.4195 18.0102C17.6095 18.0102 17.7695 17.8502 17.7695 17.6602C17.7695 15.1602 16.0795 13.0502 13.7895 12.3802ZM9.33953 9.10022C9.33953 7.49022 10.6495 6.17022 12.2695 6.17022C13.8895 6.17022 15.1995 7.48022 15.1995 9.10022C15.1995 10.7102 13.8895 12.0302 12.2695 12.0302C10.6495 12.0302 9.33953 10.7102 9.33953 9.10022Z"></path>
</svg>